<svg width="14" height="14" viewBox="0 0 14 14" fill="none" xmlns="http://www.w3.org/2000/svg">
<path fill-rule="evenodd" clip-rule="evenodd" d="M0.729248 7.00008C0.729248 3.54092 3.54092 0.729248 7.00008 0.729248C10.4592 0.729248 13.2709 3.54092 13.2709 7.00008C13.2709 10.4592 10.4592 13.2709 7.00008 13.2709C3.54092 13.2709 0.729248 10.4592 0.729248 7.00008ZM1.60425 7.00008C1.60425 9.97508 4.02508 12.3959 7.00008 12.3959C9.97508 12.3959 12.3959 9.97508 12.3959 7.00008C12.3959 4.02508 9.97508 1.60425 7.00008 1.60425C4.02508 1.60425 1.60425 4.02508 1.60425 7.00008Z" fill="#9E9E9E"/>
<path d="M6.5625 7.58342V4.66675C6.5625 4.42758 6.76083 4.22925 7 4.22925C7.23917 4.22925 7.4375 4.42758 7.4375 4.66675V7.58342C7.4375 7.82258 7.23917 8.02092 7 8.02092C6.76083 8.02092 6.5625 7.82258 6.5625 7.58342Z" fill="#9E9E9E"/>
<path d="M6.77841 9.87001C6.70841 9.84085 6.64425 9.80001 6.58591 9.74751C6.53341 9.68918 6.49258 9.63085 6.46341 9.55501C6.43425 9.48501 6.41675 9.40918 6.41675 9.33335C6.41675 9.25751 6.43425 9.18168 6.46341 9.11168C6.49258 9.04168 6.53341 8.97751 6.58591 8.91918C6.64425 8.86668 6.70841 8.82585 6.77841 8.79668C6.91841 8.73835 7.08175 8.73835 7.22175 8.79668C7.29175 8.82585 7.35591 8.86668 7.41425 8.91918C7.46675 8.97751 7.50758 9.04168 7.53675 9.11168C7.56591 9.18168 7.58341 9.25751 7.58341 9.33335C7.58341 9.40918 7.56591 9.48501 7.53675 9.55501C7.50758 9.63085 7.46675 9.68918 7.41425 9.74751C7.35591 9.80001 7.29175 9.84085 7.22175 9.87001C7.15175 9.89918 7.07591 9.91668 7.00008 9.91668C6.92425 9.91668 6.84841 9.89918 6.77841 9.87001Z" fill="#9E9E9E"/>
</svg>
