<svg width="24" height="24" viewBox="0 0 24 24" fill="none" xmlns="http://www.w3.org/2000/svg">
<path d="M12 0C18.628 0 24 5.37305 24 12C24 18.628 18.628 24 12 24C5.37305 24 0 18.6275 0 12C0 5.37305 5.37305 0 12 0Z" fill="#F5AC37"/>
<path fill-rule="evenodd" clip-rule="evenodd" d="M6.28518 18.6152V18.66L6.28302 18.6616V18.6692H11.4881C12.0773 18.6773 12.6643 18.6303 13.2431 18.5266C13.8528 18.4073 14.4468 18.2193 15.0133 17.9645C15.2589 17.8507 15.4946 17.7132 15.7323 17.5745C15.7925 17.5394 15.8528 17.5042 15.9135 17.4693C16.1932 17.27 16.461 17.054 16.7159 16.8245C17.4136 16.1938 17.9536 15.407 18.2911 14.5295C18.3138 14.4312 18.4099 14.368 18.5087 14.3869H19.9263C20.0391 14.3869 20.0764 14.3491 20.0764 14.2217V13.3139C20.0839 13.227 20.0839 13.139 20.0764 13.052C20.0764 13.0293 20.0822 13.0066 20.088 12.984C20.0997 12.9389 20.1113 12.8939 20.0764 12.849H18.8921C18.749 12.849 18.749 12.8339 18.749 12.7064C18.7901 12.2496 18.7901 11.7911 18.749 11.3343C18.7415 11.1993 18.7717 11.1993 18.8765 11.1993H19.9117C20.0321 11.1993 20.0769 11.169 20.0769 11.0491V9.81902C20.0732 9.73753 20.0713 9.69623 20.0497 9.67529C20.0275 9.65377 19.9844 9.65377 19.8971 9.65377H18.5546C18.4499 9.67159 18.3494 9.60085 18.3305 9.49609C18.1766 9.09379 17.9806 8.70877 17.7446 8.34858C17.507 7.99326 17.2392 7.65953 16.9422 7.35119C16.5474 6.95699 16.1041 6.61462 15.6224 6.33112C14.8961 5.90938 14.1018 5.61399 13.275 5.46117C12.8738 5.38719 12.4682 5.34237 12.06 5.32617H6.4353C6.28518 5.32617 6.28518 5.35641 6.28518 5.47629V9.51877C6.28518 9.66133 6.25494 9.66133 6.14262 9.66133H4.53016C4.41028 9.66133 4.41028 9.68348 4.41028 9.7661V11.0859C4.41028 11.2058 4.44754 11.2058 4.53772 11.2058H6.16529C6.28518 11.2058 6.28518 11.2279 6.28518 11.3181V12.728C6.28518 12.8555 6.24738 12.8555 6.15018 12.8555H4.41028V14.2805C4.41028 14.4004 4.44754 14.4004 4.53772 14.4004H6.16529C6.28518 14.4004 6.28518 14.415 6.28518 14.5127V16.2753V16.8677V18.6152ZM16.643 9.53282C16.656 9.5663 16.656 9.60356 16.643 9.63758H16.6792C16.6641 9.6824 16.589 9.69752 16.589 9.69752H7.93435C7.79179 9.69752 7.79179 9.66728 7.79179 9.55495V6.89273C7.79179 6.79499 7.80691 6.75017 7.91923 6.75017H11.9466C12.3754 6.74639 12.803 6.79121 13.2215 6.88517C14.051 7.08173 14.8227 7.47269 15.4717 8.02512C15.6013 8.12178 15.7169 8.23572 15.8168 8.36262C16.0285 8.57269 16.2143 8.80651 16.3719 9.06031C16.4767 9.20881 16.5669 9.36703 16.643 9.53282ZM17.0021 12.8474H12.4423H7.97215C7.88095 12.8474 7.83601 12.8474 7.81386 12.8249C7.79233 12.8031 7.79233 12.76 7.79233 12.6751V11.3402C7.79233 11.2349 7.82257 11.1977 7.93489 11.1977H17.0097C17.1074 11.1977 17.1522 11.2349 17.1522 11.3251C17.1895 11.7895 17.1895 12.2561 17.1522 12.7199C17.1452 12.8474 17.0993 12.8474 17.0021 12.8474ZM16.643 14.4074C16.5156 14.3934 16.3871 14.3934 16.2596 14.4074H7.94245C7.83013 14.4074 7.79233 14.4074 7.79233 14.5576V17.1604C7.79233 17.2803 7.79233 17.3105 7.94245 17.3105H11.7824C11.966 17.3246 12.1496 17.3116 12.3295 17.2733C12.8867 17.2333 13.4348 17.1123 13.9576 16.9131C14.1477 16.8472 14.3313 16.7613 14.5046 16.6582H14.557C15.4572 16.19 16.1883 15.4545 16.6495 14.5516C16.6495 14.5516 16.7019 14.4382 16.643 14.4085V14.4074Z" fill="#FEFEFD"/>
</svg>
