<svg width="77" height="12" viewBox="0 0 77 12" fill="none" xmlns="http://www.w3.org/2000/svg">
<path d="M2.75148 11.869H0.383476L2.69878 0.976335H9.49878L10.6014 2.33792L9.68656 6.64177L7.44135 8.47286H3.47335L2.75148 11.869ZM3.89582 6.48526H6.80782L7.48425 5.9375L8.09635 3.05783H4.62434L3.89582 6.48526ZM11.8082 11.869H9.44023L9.88932 9.75619L14.8115 0.976335H18.0435L19.2366 9.74054L18.7842 11.869H16.4162L16.8121 10.0066L16.7158 9.25538H12.6198L12.2041 10.0066L11.8082 11.869ZM16.0217 2.88568L13.5023 7.36168H16.6383L16.0217 2.88568ZM27.2114 11.869H20.5554L22.8707 0.976335H25.2387L23.3691 9.77184H27.6571L27.2114 11.869ZM30.3239 11.869H27.9559L28.4049 9.75619L33.3272 0.976335H36.5592L37.7523 9.74054L37.2999 11.869H34.9319L35.3277 10.0066L35.2314 9.25538H31.1354L30.7197 10.0066L30.3239 11.869ZM34.5373 2.88568L32.0179 7.36168H35.1539L34.5373 2.88568ZM45.615 11.869H39.071L41.3863 0.976335H47.9303L49.4164 2.79178L47.8762 10.0379L45.615 11.869ZM43.3118 3.05783L41.8847 9.77184H45.0207L45.6778 9.23973L46.8754 3.6056L46.4478 3.05783H43.3118ZM49.8991 11.869L52.2144 0.976335H54.5824L52.2671 11.869H49.8991ZM57.2656 11.869H54.9616L57.2769 0.976335H59.5809L59.2915 2.33792L62.9197 7.54949C63.0015 6.93912 63.1171 6.094 63.2335 5.54624L64.2049 0.976335H66.5089L64.1936 11.869H61.8896L62.1823 10.4918L58.5541 5.28018C58.4884 5.89055 58.3567 6.73567 58.237 7.29908L57.2656 11.869ZM73.1391 11.869H67.9231L66.8078 10.4918L67.2104 8.59806H69.5144L69.2216 9.97529H72.6296L73.1852 7.36168H68.9132L67.8106 6.0001L68.589 2.33792L70.2704 0.976335H75.3584L76.477 2.33792L76.0479 4.35681H73.7439L74.0599 2.87003H70.7799L70.2277 5.46799H74.4997L75.5989 6.84522L74.8238 10.4918L73.1391 11.869Z" fill="white"/>
</svg>
