<svg width="45" height="45" viewBox="0 0 45 45" fill="none" xmlns="http://www.w3.org/2000/svg">
<path d="M23.8749 7.83325C23.8749 7.07386 23.2593 6.45825 22.4999 6.45825C21.7405 6.45825 21.1249 7.07386 21.1249 7.83325L21.1249 21.1249H7.83325C7.07386 21.1249 6.45825 21.7405 6.45825 22.4999C6.45825 23.2593 7.07386 23.8749 7.83325 23.8749H21.1249V37.1666C21.1249 37.926 21.7405 38.5416 22.4999 38.5416C23.2593 38.5416 23.8749 37.926 23.8749 37.1666V23.8749H37.1666C37.926 23.8749 38.5416 23.2593 38.5416 22.4999C38.5416 21.7405 37.926 21.1249 37.1666 21.1249H23.8749L23.8749 7.83325Z" fill="white"/>
</svg>
